<?xml version="1.0" standalone="no"?>
<!DOCTYPE svg PUBLIC "-//W3C//DTD SVG 20010904//EN"
 "http://www.w3.org/TR/2001/REC-SVG-20010904/DTD/svg10.dtd">
<svg version="1.0" xmlns="http://www.w3.org/2000/svg"
 width="1024.000000pt" height="1024.000000pt" viewBox="0 0 1024.000000 1024.000000"
 preserveAspectRatio="xMidYMid meet">
<metadata>
Created by potrace 1.14, written by Peter Selinger 2001-2017
</metadata>
<g transform="translate(0.000000,1024.000000) scale(0.100000,-0.100000)"
fill="#000000" stroke="none">
<path d="M6038 8944 c-3 -2 -31 -6 -64 -7 -32 -2 -59 -8 -62 -15 -2 -6 -9 -9
-16 -6 -7 3 -19 -2 -26 -10 -7 -9 -16 -13 -21 -10 -5 3 -9 0 -9 -5 0 -6 -7
-11 -15 -11 -8 0 -15 -5 -15 -12 0 -7 -12 -23 -27 -35 -14 -13 -23 -23 -19
-23 3 0 0 -10 -8 -22 -11 -16 -16 -60 -19 -149 -2 -93 -7 -130 -18 -141 -8 -7
-51 -38 -96 -68 -46 -30 -83 -58 -83 -62 0 -4 -6 -8 -14 -8 -8 0 -17 -9 -21
-19 -3 -11 -15 -23 -25 -26 -11 -3 -19 -9 -18 -13 1 -4 -4 -17 -11 -30 -7 -13
-10 -30 -7 -37 3 -8 1 -17 -5 -20 -5 -4 -6 -12 -2 -18 12 -19 12 -37 2 -37 -6
0 -7 -4 -4 -10 3 -5 2 -10 -3 -10 -5 0 -8 -33 -8 -73 l2 -74 -56 4 c-66 4
-181 5 -195 3 -5 -1 -14 -1 -20 0 -5 1 -24 3 -41 4 -23 2 -47 18 -91 62 -33
32 -67 60 -74 62 -8 2 -15 8 -17 13 -2 5 -12 9 -23 9 -10 0 -19 5 -19 10 0 6
-9 10 -19 10 -11 0 -21 5 -23 10 -2 6 -17 11 -35 13 -17 1 -29 5 -26 10 2 4
-4 7 -15 7 -10 0 -22 3 -25 7 -4 3 -24 8 -45 10 -20 2 -49 8 -64 13 -19 6 -28
6 -28 -2 0 -7 -4 -7 -12 -1 -7 6 -26 8 -41 6 -22 -3 -27 -1 -21 9 6 10 4 10
-9 -1 -9 -7 -17 -11 -17 -7 0 3 -12 1 -26 -4 -14 -6 -23 -6 -20 -1 4 5 -22 3
-56 -6 -80 -19 -91 -21 -101 -22 -5 -1 -5 -5 -2 -11 3 -6 -1 -7 -10 -4 -8 4
-26 -1 -40 -10 -13 -9 -31 -16 -40 -16 -8 0 -15 -4 -15 -9 0 -8 -37 -24 -52
-22 -5 1 -8 -6 -8 -14 0 -8 -5 -15 -11 -15 -6 0 -29 -18 -51 -40 -23 -22 -38
-40 -34 -40 4 0 -7 -13 -23 -29 -16 -16 -27 -32 -24 -35 4 -3 1 -6 -6 -6 -7 0
-9 -4 -6 -10 3 -5 -1 -21 -10 -34 -9 -14 -15 -33 -14 -43 4 -31 -24 -78 -46
-78 -11 0 -41 -5 -67 -12 -27 -6 -48 -9 -48 -6 0 3 -6 1 -12 -4 -7 -6 -34 -16
-60 -24 -27 -7 -48 -16 -48 -20 0 -3 -6 -6 -12 -6 -7 -1 -35 -8 -63 -17 -27
-8 -51 -13 -54 -10 -8 8 -8 94 0 94 4 0 6 9 4 20 -2 11 0 22 5 25 5 3 6 15 1
27 -4 12 -4 38 0 57 4 19 6 39 3 43 -3 4 -1 8 4 8 13 0 22 49 10 56 -4 3 -5
11 -1 17 10 16 15 45 17 92 0 22 5 43 10 47 5 3 11 26 13 50 2 23 6 71 9 105
5 53 3 65 -17 92 -25 34 -77 74 -64 50 3 -8 0 -6 -8 4 -8 9 -19 17 -24 17 -6
0 -8 11 -6 24 5 25 -33 106 -50 106 -15 0 -41 31 -42 51 -1 11 2 19 7 19 5 0
4 9 -2 19 -6 13 -7 22 0 26 12 8 -20 65 -45 79 -11 6 -22 13 -25 16 -10 11
-79 11 -99 0 -18 -9 -25 -7 -47 17 -14 15 -27 27 -27 25 -1 -2 -15 1 -30 7
-39 15 -63 14 -100 -5 -38 -20 -58 -39 -50 -48 4 -3 1 -6 -5 -6 -6 0 -14 -20
-17 -45 -7 -43 -9 -45 -54 -58 -25 -7 -48 -9 -49 -5 -2 4 -8 8 -14 8 -5 0 -16
7 -24 15 -20 19 -104 18 -126 -3 -10 -8 -18 -11 -18 -6 0 5 -8 -7 -18 -26 -10
-19 -15 -39 -10 -44 22 -27 -6 -76 -43 -76 -11 0 -29 -9 -41 -20 -12 -10 -25
-17 -30 -14 -4 3 -8 -2 -8 -10 0 -9 -4 -16 -9 -16 -13 0 -29 -54 -38 -130 -9
-80 -8 -98 11 -175 2 -11 13 -56 24 -100 11 -47 16 -85 11 -91 -5 -6 -6 -14
-2 -17 3 -4 -8 -7 -25 -7 -23 0 -40 -9 -64 -34 -32 -33 -32 -34 -71 -20 -51
18 -72 18 -91 -2 -9 -8 -16 -12 -16 -7 0 4 -7 -2 -15 -14 -9 -12 -14 -33 -11
-47 5 -30 -3 -68 -14 -61 -5 3 -11 1 -15 -5 -4 -6 -11 -8 -16 -5 -5 4 -9 1 -9
-4 0 -6 -6 -11 -14 -11 -7 0 -19 -7 -26 -15 -7 -9 -15 -13 -18 -11 -7 8 -37
-35 -54 -79 -15 -40 -16 -47 -3 -103 6 -29 5 -30 -25 -28 -17 1 -36 -4 -42
-11 -6 -7 -16 -13 -24 -13 -12 0 -30 -36 -26 -52 3 -12 -26 -9 -33 2 -4 6 -10
8 -15 5 -4 -3 -10 2 -13 9 -13 32 -117 2 -117 -33 0 -6 -4 -11 -9 -11 -5 0 -8
-16 -6 -35 2 -31 -3 -38 -41 -64 -24 -15 -41 -31 -37 -35 3 -3 1 -6 -6 -6 -14
0 -34 -19 -41 -40 -7 -22 -8 -184 -1 -190 11 -9 31 -50 31 -64 0 -8 5 -16 10
-18 6 -2 12 -13 15 -26 3 -12 7 -32 10 -43 4 -21 29 -56 50 -71 6 -4 6 -8 2
-8 -5 0 -1 -7 7 -16 9 -8 16 -24 16 -35 0 -10 5 -19 11 -19 6 0 8 -7 5 -16 -3
-8 -2 -12 4 -9 6 3 10 -1 10 -9 0 -8 11 -36 25 -61 15 -26 21 -45 14 -45 -7 0
-6 -9 5 -25 9 -13 16 -31 16 -40 0 -10 5 -13 12 -9 8 5 9 2 5 -10 -4 -10 -1
-19 8 -22 8 -4 12 -10 9 -15 -3 -5 -2 -15 3 -21 13 -21 12 -37 -3 -49 -8 -6
-14 -17 -14 -23 0 -6 -13 -27 -28 -46 -36 -44 -83 -116 -99 -152 -7 -16 -17
-28 -23 -28 -5 0 -9 -3 -9 -7 1 -5 1 -10 -1 -13 -1 -3 -3 -15 -6 -28 -2 -13
-11 -30 -19 -38 -18 -18 -20 -28 -3 -18 7 4 2 -7 -11 -25 -13 -17 -24 -37 -26
-44 -1 -7 -6 -27 -10 -45 -4 -18 -12 -35 -16 -38 -5 -3 -7 -10 -4 -15 4 -5 1
-9 -5 -9 -6 0 -8 -5 -5 -10 4 -6 3 -16 -2 -23 -14 -18 -38 -103 -45 -154 -1
-7 -4 -13 -7 -13 -4 0 -7 -14 -7 -31 -1 -17 -6 -34 -10 -38 -5 -3 -10 -15 -11
-26 -2 -11 -5 -36 -9 -55 -3 -19 -6 -41 -6 -47 -1 -7 -4 -13 -7 -13 -3 0 -7
-24 -7 -52 -4 -165 -13 -329 -19 -338 -3 -5 -3 -10 2 -10 4 0 8 -60 8 -133 0
-72 3 -144 7 -160 4 -18 3 -25 -4 -21 -14 9 1 -39 16 -48 7 -5 6 -8 -4 -8 -9
0 -11 -3 -5 -8 15 -10 17 -38 12 -167 -2 -44 0 -84 3 -90 4 -5 7 -26 8 -45 0
-45 12 -99 23 -106 5 -3 7 -10 4 -15 -4 -5 -1 -9 6 -9 7 0 9 -3 6 -6 -3 -4 -2
-15 3 -25 6 -10 11 -29 12 -43 1 -15 6 -26 11 -26 4 0 7 -6 6 -12 -3 -17 26
-80 33 -73 3 3 4 -6 3 -20 -2 -14 2 -31 8 -38 12 -13 19 -32 20 -54 0 -7 4
-10 8 -7 4 2 10 -5 14 -16 3 -11 12 -20 18 -20 7 0 6 -4 -3 -10 -12 -8 -12
-10 -1 -10 8 0 11 -3 8 -7 -4 -3 0 -17 9 -31 9 -13 11 -22 6 -18 -9 6 3 -28
27 -74 4 -8 7 -23 5 -32 -1 -10 2 -18 7 -18 5 0 9 -5 9 -12 0 -7 12 -23 27
-35 14 -13 23 -23 18 -23 -4 0 3 -10 17 -23 13 -12 23 -28 21 -33 -2 -6 3 -17
12 -24 8 -7 15 -19 15 -26 0 -8 5 -14 11 -14 5 0 7 -5 4 -11 -4 -5 -1 -18 7
-27 21 -27 38 -61 38 -77 0 -8 5 -15 10 -15 6 0 10 -5 10 -11 0 -10 14 -29 75
-104 14 -16 25 -35 25 -41 0 -7 4 -14 8 -16 4 -1 17 -17 29 -33 12 -17 34 -37
50 -45 31 -16 45 -32 65 -70 7 -14 21 -34 31 -44 9 -11 17 -28 17 -37 0 -10 8
-20 17 -23 10 -4 36 -27 58 -52 86 -99 162 -176 200 -202 45 -30 50 -34 84
-62 13 -11 28 -20 32 -20 4 0 11 -9 14 -20 4 -11 10 -18 14 -15 4 2 17 -3 27
-13 10 -9 28 -19 39 -20 11 -2 23 -9 27 -15 5 -8 8 -7 8 3 1 12 3 11 11 -3 6
-9 14 -15 20 -12 5 3 6 -1 3 -9 -4 -11 0 -16 12 -16 9 0 15 -3 11 -6 -6 -7 23
-41 31 -36 2 2 11 -5 20 -16 9 -10 28 -23 42 -27 14 -4 33 -17 42 -28 10 -11
18 -17 18 -12 0 4 8 -3 18 -16 11 -12 25 -24 33 -25 60 -12 74 -17 100 -36 16
-12 29 -25 29 -30 0 -4 6 -8 13 -8 7 0 19 -6 26 -12 6 -7 15 -13 19 -14 29 -2
72 -17 72 -25 0 -6 4 -7 10 -4 5 3 10 2 10 -3 0 -5 7 -9 15 -10 8 -1 22 -3 31
-4 9 -1 23 -12 31 -25 8 -13 24 -23 35 -23 10 0 17 -4 14 -8 -2 -4 29 -21 70
-36 41 -16 77 -33 80 -38 3 -4 21 -15 41 -23 35 -15 53 -19 123 -31 19 -3 51
-19 71 -35 20 -16 39 -26 43 -22 3 3 6 0 6 -7 0 -7 2 -11 6 -8 3 3 37 -3 77
-13 40 -10 85 -21 101 -24 16 -3 33 -8 38 -11 12 -8 49 -14 88 -16 19 0 38 -6
42 -12 5 -7 8 -6 8 3 0 11 5 10 20 -4 23 -21 28 -22 122 -29 37 -2 75 -9 84
-14 9 -5 31 -6 48 -3 38 8 47 8 64 -2 7 -5 48 -12 91 -16 43 -5 84 -11 90 -15
22 -14 235 -16 243 -3 4 7 8 7 8 2 0 -10 163 -14 195 -5 6 1 12 1 15 0 14 -6
182 -4 186 2 3 5 13 4 22 0 41 -20 342 5 342 28 0 4 39 7 86 8 47 0 109 6 137
11 29 6 61 12 72 14 11 1 26 6 33 10 6 5 12 6 12 3 0 -3 17 2 37 10 20 9 45
18 55 20 10 2 28 7 41 10 12 3 28 6 35 6 6 1 12 6 12 11 0 6 3 7 6 4 4 -3 16
-1 28 5 11 7 24 11 29 10 4 -1 7 2 7 7 0 8 27 19 42 17 4 -1 13 8 21 18 9 12
20 17 31 13 11 -4 16 -1 16 10 0 9 3 13 7 10 3 -4 17 0 29 8 12 8 41 17 63 21
23 4 41 9 41 13 0 3 16 7 36 8 20 1 41 7 48 12 7 6 15 8 19 5 7 -7 77 17 77
27 0 4 9 11 20 14 11 4 18 10 15 15 -3 4 2 11 11 14 10 4 13 2 8 -7 -6 -9 -4
-8 8 1 9 7 29 15 45 18 36 6 154 64 170 84 7 8 13 12 13 8 0 -4 11 4 25 18 14
14 30 22 35 19 6 -3 10 -1 10 4 0 6 7 11 15 11 8 0 15 5 15 10 0 6 5 10 11 10
6 0 17 7 26 15 8 8 19 13 24 10 5 -4 9 -1 9 4 0 6 7 11 15 11 16 0 77 39 83
53 2 4 10 7 18 7 8 0 14 5 14 10 0 6 7 10 16 10 8 0 13 4 10 8 -3 5 12 19 33
33 22 13 37 27 34 32 -2 4 5 7 16 7 12 0 20 3 19 8 -1 4 10 20 25 36 15 16 27
25 27 20 0 -5 5 -1 11 9 6 9 14 15 20 12 5 -4 9 -2 9 4 0 13 87 101 122 123
27 18 58 44 127 110 22 20 42 34 45 30 3 -3 6 0 6 7 0 16 26 42 34 34 3 -4 6
0 6 8 0 9 18 28 41 45 22 16 46 35 54 42 7 6 19 12 25 12 6 0 9 4 5 9 -3 5 3
17 12 27 10 10 18 23 18 30 0 7 11 22 24 33 13 12 21 21 17 21 -4 0 0 7 8 16
9 8 16 23 16 31 0 9 3 14 6 11 8 -8 47 31 79 80 15 23 32 42 36 42 5 0 8 3 7
8 -1 4 3 17 10 29 7 13 9 23 5 23 -4 1 2 9 14 19 12 10 19 21 16 25 -4 3 -1 6
5 6 7 0 12 5 12 10 0 6 9 19 20 30 12 12 18 25 15 30 -3 5 5 16 17 24 12 9 17
16 10 16 -7 0 -2 11 12 24 15 13 26 31 26 40 0 9 5 16 11 16 6 0 9 7 5 15 -3
8 -2 15 3 15 5 0 14 14 21 30 7 17 16 30 21 30 5 0 9 7 9 15 0 8 4 15 9 15 5
0 12 12 16 27 3 15 14 33 23 41 9 7 11 11 4 7 -7 -4 -4 9 8 30 11 20 15 33 8
29 -10 -6 -11 -4 0 7 6 7 12 21 12 31 0 10 6 21 14 24 8 3 12 12 9 20 -3 8 0
14 5 14 6 0 9 9 7 20 -2 11 0 18 6 15 5 -4 9 3 9 14 0 12 4 21 10 21 5 0 7 7
4 15 -4 8 -1 15 5 15 6 0 11 12 11 26 0 17 4 23 12 18 8 -5 9 -2 5 11 -4 9 -2
24 4 31 6 8 8 14 4 14 -4 0 -1 8 6 17 12 15 12 16 -1 8 -12 -7 -13 -6 -3 7 7
8 10 18 6 21 -3 4 0 7 7 7 7 0 10 3 7 7 -4 3 -2 12 4 19 7 8 7 14 -1 19 -8 5
-8 11 -1 19 6 7 13 23 15 37 3 13 5 25 7 27 2 3 6 19 8 33 0 5 6 7 13 3 7 -5
8 -3 3 6 -9 14 -7 115 2 153 2 12 6 40 7 62 1 22 5 46 10 53 4 7 2 12 -4 12
-6 0 -8 5 -5 11 12 18 15 67 19 289 2 118 -1 247 -6 285 -5 39 -10 93 -12 120
-2 28 -5 50 -6 50 -1 0 -3 9 -4 20 -3 21 -12 70 -21 118 -3 15 -19 78 -36 140
-16 61 -33 123 -36 137 -3 14 -13 30 -22 37 -12 9 -12 12 -3 13 10 0 9 4 -2
16 -9 8 -14 20 -11 25 4 5 2 9 -4 9 -5 0 -8 9 -6 20 2 11 0 20 -4 20 -8 0 -25
56 -23 72 1 3 -5 12 -13 18 -8 7 -15 18 -15 24 0 12 -39 100 -61 140 -8 14 -8
16 3 11 10 -6 11 -5 1 6 -7 7 -13 20 -13 29 0 8 -13 26 -30 40 -16 14 -30 33
-30 43 0 11 -16 35 -36 56 -21 20 -36 38 -36 41 1 3 -8 15 -18 28 -11 12 -18
22 -15 22 5 0 -26 38 -53 66 -7 8 -10 14 -6 14 4 0 -4 10 -18 23 -13 12 -31
37 -39 55 -7 18 -17 32 -20 32 -11 0 -117 109 -111 114 3 4 1 6 -5 6 -6 0 -33
22 -60 48 -27 27 -55 46 -61 44 -7 -2 -12 3 -12 12 0 9 -4 16 -10 16 -5 0 -27
16 -47 35 -21 20 -44 33 -51 30 -7 -2 -10 0 -7 5 3 6 1 10 -5 10 -6 0 -8 5 -5
10 3 6 -1 10 -10 10 -8 0 -18 7 -21 15 -4 8 -10 12 -15 9 -5 -3 -9 -1 -9 5 0
5 -9 13 -20 16 -11 3 -20 13 -20 21 0 8 -5 12 -10 9 -6 -3 -13 0 -16 9 -3 8
-19 19 -35 25 -16 5 -29 15 -29 20 0 6 -6 11 -14 11 -7 0 -25 11 -40 25 -14
13 -26 22 -26 20 0 -2 -12 2 -27 10 -15 8 -30 12 -35 9 -4 -3 -8 0 -8 5 0 6
-3 10 -7 10 -22 -4 -33 3 -34 19 0 14 -2 14 -9 -3 -5 -11 -9 -15 -9 -9 -1 5
-8 19 -17 30 -8 10 -13 13 -9 7 4 -9 1 -11 -9 -7 -9 3 -13 10 -10 15 3 5 -3 9
-14 9 -11 0 -30 8 -43 19 -13 10 -30 16 -38 13 -8 -2 -11 0 -8 5 4 6 -3 9 -16
9 -31 -3 -40 4 -27 19 9 11 7 12 -9 8 -16 -4 -21 -1 -21 13 0 16 -2 17 -10 4
-7 -12 -10 -12 -10 -1 0 7 -6 11 -14 8 -10 -4 -13 -1 -9 9 3 9 0 14 -8 12 -8
-2 -13 3 -11 10 1 8 -2 11 -8 7 -6 -3 -8 -11 -5 -16 3 -5 -1 -6 -9 -3 -8 3
-17 12 -20 19 -3 8 -13 11 -27 8 -14 -4 -20 -2 -16 4 4 6 1 11 -6 10 -36 -1
-58 4 -52 12 3 6 -4 8 -15 6 -11 -2 -26 2 -33 8 -7 7 -23 18 -36 25 -19 11
-22 11 -16 0 3 -7 1 -6 -7 3 -13 16 -18 18 -40 20 -7 0 -4 4 7 8 17 7 17 8 -8
15 -15 3 -25 11 -22 16 3 6 -1 10 -9 10 -9 0 -16 5 -16 11 0 5 -4 8 -9 5 -5
-3 -8 2 -7 12 0 10 -6 16 -16 16 -10 -1 -16 2 -13 6 2 4 -8 18 -23 31 l-27 24
20 -25 c20 -25 20 -25 0 -10 -11 8 -23 19 -26 23 -3 5 -9 8 -13 8 -19 -3 -26
0 -26 13 0 8 -6 16 -14 19 -8 3 -20 16 -26 28 -10 17 -9 20 2 14 10 -6 11 -5
1 6 -18 18 -16 32 2 25 8 -3 15 0 15 7 0 7 3 8 8 2 4 -5 18 -11 32 -13 14 -2
32 -12 42 -23 18 -21 33 -26 22 -6 -4 6 7 -3 23 -22 20 -24 32 -31 37 -23 5 9
15 7 37 -9 23 -16 28 -26 24 -42 -5 -18 -4 -19 5 -7 9 11 13 12 17 3 2 -7 10
-13 17 -13 8 0 24 -8 37 -19 13 -10 29 -16 34 -14 6 2 20 -6 32 -17 15 -14 23
-16 26 -7 4 9 6 9 6 -1 1 -7 6 -10 13 -6 8 5 9 2 5 -9 -3 -9 -1 -19 5 -23 7
-5 8 -2 3 6 -6 10 -4 11 11 6 10 -5 27 -11 37 -13 9 -3 17 -10 17 -15 0 -6 6
-6 14 1 12 10 19 8 37 -10 15 -15 20 -17 16 -6 -4 11 -2 14 8 10 8 -3 13 -9
10 -13 -4 -6 39 -21 70 -24 5 -1 20 -11 34 -24 14 -12 30 -21 38 -18 7 3 15 0
19 -6 5 -7 2 -8 -6 -3 -8 5 -11 4 -7 -2 4 -6 20 -10 36 -9 22 1 27 -2 23 -13
-3 -9 -1 -12 6 -7 7 4 12 2 12 -4 0 -7 6 -10 13 -7 8 3 20 -3 27 -13 7 -10 20
-16 28 -12 11 4 13 2 7 -8 -6 -10 -4 -12 9 -7 10 4 15 3 11 -3 -3 -6 0 -11 7
-12 7 0 18 -2 23 -2 19 -3 35 -17 29 -27 -3 -5 -2 -8 3 -7 4 1 22 -5 39 -15
17 -9 34 -13 38 -10 3 4 6 1 6 -5 0 -7 7 -12 15 -12 8 0 15 -4 15 -10 0 -5 9
-10 20 -10 11 0 20 -4 20 -9 0 -5 14 -14 30 -20 17 -5 28 -7 26 -2 -3 4 1 8 9
8 8 0 12 -4 9 -9 -3 -4 0 -8 5 -8 6 0 11 -8 11 -17 0 -15 2 -16 10 -3 8 13 10
12 10 -4 0 -13 3 -16 13 -8 14 11 41 -10 29 -24 -4 -4 -2 -4 4 -1 6 3 28 -6
49 -20 21 -14 35 -19 31 -12 -4 8 0 5 8 -5 9 -11 16 -16 16 -12 0 4 7 0 16 -8
8 -9 20 -14 25 -11 5 4 9 1 9 -4 0 -6 9 -11 20 -11 11 0 20 -5 20 -11 0 -5 5
-7 10 -4 6 3 10 2 10 -3 0 -6 7 -13 16 -16 10 -4 13 -2 9 7 -4 6 1 3 9 -7 9
-11 16 -16 16 -11 0 4 8 1 18 -8 9 -8 29 -19 45 -22 15 -4 27 -11 27 -17 0 -5
4 -7 9 -3 5 3 16 -2 25 -10 8 -8 26 -16 40 -17 14 -1 26 -5 26 -9 0 -4 10 -7
23 -8 29 -2 81 -8 85 -11 8 -7 50 -2 68 8 12 6 24 8 28 5 3 -3 6 -1 6 6 0 7 4
10 9 7 5 -3 12 1 15 10 5 13 9 14 20 5 11 -10 16 -8 21 8 4 13 11 18 22 14 11
-4 14 -2 9 5 -4 7 -1 12 7 12 8 0 20 7 27 15 11 13 10 14 -6 8 -16 -6 -17 -5
-4 9 8 9 18 14 23 11 4 -2 7 2 7 10 0 8 7 20 15 27 12 10 13 16 3 28 -8 10 -9
13 -2 9 7 -4 15 0 18 9 4 10 2 13 -7 9 -6 -4 -5 -1 4 7 9 7 18 18 20 23 2 6 8
9 13 7 5 -2 6 4 3 12 -4 9 -2 18 4 22 6 4 6 11 -2 20 -9 11 -9 17 1 29 10 12
10 15 0 15 -7 0 -10 7 -6 15 3 8 -6 28 -19 44 -14 16 -25 34 -25 40 0 15 -63
81 -77 81 -7 0 -13 5 -13 11 0 6 -7 9 -15 5 -9 -3 -15 0 -15 9 0 8 -3 14 -7
13 -5 -1 -18 3 -31 10 -12 7 -28 10 -34 6 -7 -4 -8 -3 -4 4 4 7 2 13 -3 13
-12 2 -26 5 -38 9 -5 1 -11 2 -15 1 -5 0 -8 6 -8 15 0 8 -4 12 -10 9 -5 -3
-10 -1 -10 5 0 6 -4 8 -10 5 -5 -3 -10 -1 -10 5 0 7 -6 10 -12 7 -7 -2 -19 3
-26 12 -8 9 -10 10 -6 2 5 -10 -2 -9 -24 4 -17 10 -29 22 -26 27 5 8 0 10 -28
12 -7 1 -22 9 -33 19 -10 10 -25 15 -32 13 -7 -3 -13 1 -13 9 0 13 -12 17 -36
14 -4 0 -10 3 -13 8 -3 4 -15 15 -25 23 -18 13 -19 13 -12 0 4 -8 0 -6 -8 4
-9 11 -16 16 -16 10 0 -5 -4 -4 -8 3 -4 6 -14 13 -22 15 -8 2 -23 11 -32 21
-9 10 -19 18 -22 18 -20 -3 -26 0 -21 9 4 6 3 10 -2 9 -4 -1 -11 0 -15 1 -5 1
-11 3 -15 5 -22 6 -50 20 -62 33 -8 7 -22 11 -32 9 -12 -3 -20 2 -25 15 -3 11
-12 17 -20 14 -8 -3 -14 -2 -14 2 0 4 -28 20 -62 36 -35 16 -65 32 -68 36 -3
3 -36 22 -75 40 -38 19 -72 37 -75 40 -7 7 -173 87 -183 88 -4 1 -24 13 -44
26 -20 14 -40 23 -45 20 -4 -3 -8 -2 -8 3 0 4 -15 14 -32 22 -18 8 -35 17 -38
21 -3 4 -35 22 -72 40 -54 26 -71 30 -82 21 -12 -10 -15 -8 -18 11 -2 16 -21
32 -73 58 -66 34 -178 94 -200 108 -5 4 -16 7 -22 8 -7 1 -20 9 -28 18 -9 9
-27 19 -41 22 -13 3 -24 10 -24 15 0 5 -3 8 -7 7 -11 -2 -66 24 -74 35 -3 5
-9 8 -13 8 -3 -1 -7 -1 -8 0 -2 0 -12 2 -22 4 -25 5 -47 27 -48 51 -2 14 -23
30 -72 55 -39 18 -72 37 -74 42 -2 4 -12 7 -22 7 -9 0 -23 7 -30 15 -7 8 -16
15 -21 15 -5 0 -26 10 -47 23 -37 23 -138 67 -163 71 -8 1 -19 5 -25 9 -6 3
-13 4 -16 1z m-2620 -793 c7 0 11 -5 7 -10 -3 -5 2 -16 10 -24 9 -10 11 -17 4
-19 -6 -2 -11 -34 -12 -76 -1 -40 -4 -72 -7 -72 -3 0 -6 -17 -7 -37 -4 -74
-17 -101 -39 -82 -12 10 -13 8 -9 -7 4 -13 2 -12 -6 4 -7 12 -19 22 -28 22
-14 0 -14 2 -1 10 11 7 11 10 2 10 -7 0 -10 5 -7 10 3 6 1 10 -5 10 -6 0 -8 5
-5 10 3 6 1 10 -5 10 -6 0 -8 5 -5 10 3 6 0 10 -8 10 -8 0 -18 7 -21 16 -6 15
-4 15 11 3 16 -12 16 -11 -1 8 -10 12 -16 28 -13 35 2 7 0 21 -5 32 -7 13 -7
16 1 12 6 -4 11 -1 11 7 0 8 7 17 15 21 8 3 15 14 15 25 0 11 6 24 14 28 14 8
16 12 16 31 0 7 29 8 78 3z m3412 -341 c0 -5 -2 -10 -4 -10 -3 0 -8 5 -11 10
-3 6 -1 10 4 10 6 0 11 -4 11 -10z"/>
<path d="M4345 8764 c-38 -10 -75 -27 -75 -35 0 -5 -3 -8 -7 -7 -9 3 -51 -19
-70 -36 -7 -6 -18 -16 -25 -22 -27 -23 -56 -63 -51 -68 4 -3 1 -6 -5 -6 -6 0
-17 -11 -24 -24 -7 -14 -16 -25 -20 -25 -5 -1 -8 -3 -7 -7 0 -3 -6 -15 -14
-27 -8 -13 -11 -30 -7 -42 4 -11 3 -26 -4 -34 -8 -11 -8 -13 2 -7 6 4 12 3 12
-2 0 -14 58 -33 65 -21 4 5 11 7 16 4 11 -7 31 38 35 78 1 16 8 35 14 43 7 8
9 14 4 14 -4 0 1 6 11 14 11 8 23 12 27 10 4 -3 5 3 1 13 -3 10 -2 15 2 11 5
-5 15 1 22 12 17 24 80 59 68 38 -5 -7 2 -3 14 10 24 24 37 29 25 10 -5 -9 -2
-9 9 1 13 10 17 10 17 1 0 -9 4 -10 13 -2 10 8 16 6 26 -10 10 -16 10 -19 -1
-13 -7 3 -4 -1 6 -9 11 -9 16 -16 10 -16 -5 0 -9 -20 -8 -45 1 -28 -3 -45 -10
-45 -6 0 -3 -5 8 -11 15 -9 16 -13 5 -20 -11 -7 -9 -10 9 -15 12 -4 22 -13 22
-20 0 -8 7 -14 15 -14 8 0 15 -5 15 -10 0 -6 8 -10 18 -8 10 2 16 -2 14 -11
-2 -11 0 -12 10 -3 8 6 27 13 43 16 15 3 32 11 37 18 4 7 8 9 8 4 0 -6 6 -1
14 9 8 11 12 23 10 27 -3 5 0 8 6 8 6 0 9 4 5 9 -3 5 -1 12 4 15 4 3 7 19 5
36 -2 17 0 29 4 26 5 -3 6 8 4 25 -2 16 0 29 6 29 6 0 14 10 17 21 5 16 9 18
15 9 4 -7 12 -10 18 -6 22 13 111 -43 104 -66 -1 -5 2 -7 7 -3 6 3 16 -3 23
-15 7 -11 19 -20 26 -20 15 0 34 -44 37 -85 1 -16 3 -35 4 -40 1 -12 75 -14
87 -3 14 14 9 83 -7 101 -9 9 -22 30 -30 45 -34 66 -96 125 -169 161 -33 17
-60 27 -60 24 0 -3 -6 -1 -12 5 -8 6 -47 8 -98 5 -92 -5 -99 -5 -205 1 -38 3
-79 2 -90 0z"/>
<path d="M6667 7819 c7 -7 15 -10 18 -7 3 3 -2 9 -12 12 -14 6 -15 5 -6 -5z"/>
<path d="M6865 7769 c-4 -6 -4 -13 -1 -16 3 -4 6 -1 6 6 0 7 5 9 12 5 7 -4 8
-3 4 4 -9 15 -13 15 -21 1z"/>
</g>
</svg>
